# xmcd CD database file
#
# Track frame offsets:
#	150
#	26882
#	57379
#	77898
#	95686
#	118446
#	144231
#	158941
#	172738
#	197949
#	216711
#	243433
#	264802
#	305111
#
# Disc length: 4288 seconds
#
# Revision: 8
# Processed by: cddbd v1.4PL0 Copyright (c) Steve Scherf et al.
# Submitted via: CDex 1.51
#
DISCID=d310be0e
DTITLE=Guns N' Roses - The Best Of Guns N' Roses
DYEAR=1900
DGENRE=
TTITLE0=Sweet Child O´Mine
TTITLE1=Paradise City
TTITLE2=Welcome to the Jungle
TTITLE3=Mama Kin
TTITLE4=Bank off Bitch
TTITLE5=You Could be Mine
TTITLE6=Yesterday
TTITLE7=Live and Let Die
TTITLE8=Knockin´on heave´s Door
TTITLE9=You´re Crasy
TTITLE10=Patience
TTITLE11=Don´t cry
TTITLE12=November rain
TTITLE13=Oh My God
EXTD=
EXTT0=
EXTT1=
EXTT2=
EXTT3=
EXTT4=
EXTT5=
EXTT6=
EXTT7=
EXTT8=
EXTT9=
EXTT10=
EXTT11=
EXTT12=
EXTT13=
PLAYORDER=
